<svg width="80" height="80" viewBox="0 0 80 80" fill="none" xmlns="http://www.w3.org/2000/svg">
<rect width="80" height="80" rx="40" fill="white"/>
<path d="M49.505 58.3923H38.2247C37.7109 58.3923 37.2197 58.1448 36.916 57.7268C36.609 57.3056 36.525 56.7719 36.693 56.2671C36.9063 55.6144 37.5332 55.1771 38.2537 55.1771H49.5341C50.0479 55.1771 50.5391 55.4247 50.8428 55.8427C51.1498 56.2639 51.2338 56.7976 51.0658 57.3024C50.8525 57.9551 50.2256 58.3923 49.505 58.3923ZM38.2537 56.1417C37.9597 56.1417 37.6947 56.3153 37.6139 56.5661C37.5202 56.8522 37.6269 57.0612 37.7012 57.1609C37.824 57.3281 38.0179 57.4278 38.2247 57.4278H49.505C49.7991 57.4278 50.0641 57.2542 50.1448 57.0034C50.2385 56.7172 50.1319 56.5082 50.0576 56.4085C49.9348 56.2413 49.7409 56.1417 49.5341 56.1417H38.2537Z" fill="#2F2E41"/>
<path d="M49.5663 60H37.9337C37.6655 60 37.449 59.7846 37.449 59.5177C37.449 59.2508 37.6655 59.0354 37.9337 59.0354H49.5663C49.8345 59.0354 50.051 59.2508 50.051 59.5177C50.051 59.7846 49.8345 60 49.5663 60Z" fill="#2F2E41"/>
<path d="M46.8196 42.9591V44.8883H57.8059L58.4522 42.9591H46.8196Z" fill="#BF6C43"/>
<path d="M32.4634 41.866C29.1804 41.866 26.3401 38.8211 25.7036 34.6284C25.6777 34.4484 25.752 34.2748 25.891 34.1719C25.975 33.979 26.2497 33.2234 26.4726 32.6093C27.148 30.7412 27.3968 30.0853 27.5422 29.8827C28.0786 29.1368 28.7248 28.4648 29.4551 27.8893C29.5617 27.8057 29.6974 27.7703 29.8267 27.7896C29.9592 27.8089 30.0787 27.8828 30.153 27.9922C30.67 28.7381 31.5716 29.3522 32.9319 30.2782L33.4586 30.6383C35.4459 31.9984 37.4493 32.4421 38.9777 32.6736C39.2362 32.7121 39.4171 32.9469 39.3848 33.2041L39.2232 34.6124C38.5867 38.8211 35.7432 41.866 32.4634 41.866ZM26.6988 34.712C27.3224 38.3131 29.7201 40.9014 32.4634 40.9014C35.2068 40.9014 37.7013 38.2038 38.2635 34.487L38.3702 33.5545C37.2005 33.3584 35.0129 32.8761 32.9093 31.4357L32.3859 31.0788C31.1677 30.2493 30.2984 29.6577 29.6813 28.96C29.174 29.4069 28.7184 29.9052 28.3274 30.4486C28.211 30.6447 27.7134 32.0241 27.3806 32.9404C26.9767 34.0561 26.8054 34.5255 26.7247 34.6735C26.7182 34.6895 26.7085 34.7024 26.6988 34.7153V34.712Z" fill="#2F2E41"/>
<path d="M30.8248 34.5995H29.5323C29.2641 34.5995 29.0476 34.3841 29.0476 34.1172C29.0476 33.8504 29.2641 33.6349 29.5323 33.6349H30.8248C31.093 33.6349 31.3095 33.8504 31.3095 34.1172C31.3095 34.3841 31.093 34.5995 30.8248 34.5995Z" fill="#2F2E41"/>
<path d="M35.6717 34.5995H34.3792C34.111 34.5995 33.8945 34.3841 33.8945 34.1172C33.8945 33.8504 34.111 33.6349 34.3792 33.6349H35.6717C35.9399 33.6349 36.1564 33.8504 36.1564 34.1172C36.1564 34.3841 35.9399 34.5995 35.6717 34.5995Z" fill="#2F2E41"/>
<path d="M32.4631 39.3774C31.8039 39.3774 31.1318 39.133 30.5211 38.6732C30.3078 38.5125 30.2658 38.2102 30.4274 37.998C30.589 37.7858 30.8927 37.744 31.106 37.9048C31.9978 38.5768 32.9252 38.5768 33.817 37.9048C34.0303 37.744 34.334 37.7858 34.4956 37.998C34.6571 38.2102 34.6151 38.5125 34.4019 38.6732C33.7912 39.133 33.1223 39.3774 32.4599 39.3774H32.4631Z" fill="#2F2E41"/>
<path d="M40.3572 42.3161L37.1259 41.3515L35.7752 49.7112H28.8797L27.5032 41.1361L24.5239 42.6376L26.1396 54.5341H38.4184L40.3572 42.3161Z" fill="#BF6C43"/>
<path d="M20.4847 54.8556C20.2165 54.8556 20 54.6402 20 54.3733V49.8944C20 49.8944 20 49.8719 20 49.8591C20.4912 43.3257 25.4576 40.6667 27.8649 40.7535C28.1331 40.7631 28.3432 40.985 28.3335 41.2518C28.3238 41.5187 28.104 41.7213 27.8326 41.7181C26.2396 41.6602 21.4541 43.5733 20.9694 49.9137V54.3765C20.9694 54.6434 20.7529 54.8588 20.4847 54.8588V54.8556Z" fill="#2F2E41"/>
<path d="M55.1113 56.7848H52.1514C51.8832 56.7848 51.6667 56.5693 51.6667 56.3025C51.6667 56.0356 51.8832 55.8202 52.1514 55.8202H54.7365L58.1293 42.6955C58.1972 42.4383 58.4589 42.2808 58.7206 42.3483C58.9791 42.4158 59.1375 42.6762 59.0696 42.9367L55.5831 56.4247C55.5281 56.6369 55.3342 56.788 55.1145 56.788L55.1113 56.7848Z" fill="#2F2E41"/>
<path d="M58.7076 42.9592H46.9813C46.7131 42.9592 46.4966 42.7437 46.4966 42.4769C46.4966 42.21 46.7131 41.9946 46.9813 41.9946H58.7076C58.8594 41.9946 59.0307 41.7952 59.0307 41.5123C59.0307 41.2294 58.8594 41.03 58.7076 41.03H46.9813C46.7131 41.03 46.4966 40.8146 46.4966 40.5477C46.4966 40.2809 46.7131 40.0654 46.9813 40.0654H58.7076C59.4217 40.0654 60.0001 40.7149 60.0001 41.5123C60.0001 42.3097 59.4217 42.9592 58.7076 42.9592Z" fill="#2F2E41"/>
<path d="M41.3267 55.4986V54.4601C41.4915 53.9103 41.9729 52.9264 41.9729 52.9264L42.9423 52.6049V33.4131C42.9423 32.8279 43.4238 32.3488 44.0119 32.3488H44.1379C44.726 32.3488 45.2074 32.8279 45.2074 33.4131V52.6049L46.4999 52.9264C46.4999 52.9264 46.9426 53.9103 46.8231 54.4601V55.4986H41.3299H41.3267Z" fill="#2F2E41"/>
<path d="M46.6582 55.8202C46.39 55.8202 46.1735 55.6047 46.1735 55.3379V53.4923C46.1735 53.3605 46.0604 53.248 45.9311 53.248H45.3656C45.0974 53.248 44.881 53.0325 44.881 52.7657V33.2716C44.881 33.1205 44.7097 32.6704 44.3963 32.6704H43.7855C43.498 32.6704 43.2653 32.9019 43.2653 33.188V52.7657C43.2653 53.0325 43.0488 53.248 42.7806 53.248H42.5803C42.2442 53.248 41.9728 53.518 41.9728 53.8524V55.3379C41.9728 55.6047 41.7563 55.8202 41.4881 55.8202C41.2199 55.8202 41.0034 55.6047 41.0034 55.3379V53.8524C41.0034 53.084 41.5624 52.4409 42.2959 52.3091V33.188C42.2959 32.3713 42.9648 31.7058 43.7855 31.7058H44.3963C45.3333 31.7058 45.8503 32.6318 45.8503 33.2716V52.2834H45.9311C46.6 52.2834 47.1428 52.8236 47.1428 53.4923V55.3379C47.1428 55.6047 46.9264 55.8202 46.6582 55.8202Z" fill="#2F2E41"/>
<path d="M58.0418 39.3259C57.8512 39.3259 57.667 39.2102 57.5927 39.0237C57.3212 38.3485 56.7364 38.0237 56.2937 37.8662C55.557 37.6058 54.8752 37.6829 54.7168 37.7569C54.6005 37.8598 54.4389 37.8983 54.2871 37.863C54.1223 37.8244 53.993 37.7054 53.9381 37.5447C53.7991 37.1331 53.1626 36.5769 52.3741 36.3904C51.9961 36.3004 51.4694 36.2746 51.0946 36.6444C50.9847 36.7537 50.8264 36.8052 50.6745 36.7794C50.5194 36.7537 50.3869 36.6573 50.3191 36.519C50.067 36.0142 49.5371 35.6895 48.9005 35.6509C48.3092 35.6123 47.7631 35.8341 47.5111 36.2071C47.3624 36.429 47.0619 36.4868 46.839 36.3422C46.616 36.1943 46.5546 35.8952 46.7033 35.6734C47.1492 35.0078 48.0152 34.6316 48.9587 34.6895C49.7374 34.7377 50.4225 35.0754 50.8748 35.6187C51.3563 35.3615 51.9508 35.3036 52.5939 35.4547C53.434 35.6509 54.2095 36.175 54.6231 36.7826C55.0593 36.6862 55.6151 36.7151 56.074 36.8084C56.7525 36.9466 57.9707 37.3743 58.4877 38.6668C58.5879 38.9144 58.4651 39.1941 58.2163 39.2938C58.1581 39.3163 58.0967 39.3291 58.0353 39.3291L58.0418 39.3259Z" fill="#2F2E41"/>
<path d="M25.9782 54.5341C25.7423 54.5341 25.5323 54.3605 25.4999 54.1193L23.8843 42.8659C23.8455 42.6023 24.0297 42.3579 24.2947 42.3193C24.5596 42.2808 24.8052 42.464 24.844 42.7277L26.4596 53.981C26.4984 54.2447 26.3142 54.4891 26.0493 54.5276C26.0266 54.5309 26.004 54.5341 25.9814 54.5341H25.9782Z" fill="#2F2E41"/>
<path d="M40.855 43.1874C40.7613 43.1874 40.6644 43.1585 40.5804 43.1038C39.136 42.1135 37.6851 41.6956 36.9646 41.7148C36.6964 41.7148 36.4734 41.5155 36.4637 41.2486C36.454 40.9818 36.664 40.7599 36.9322 40.7503C38.047 40.7085 39.695 41.3226 41.1329 42.3064C41.3526 42.4576 41.4076 42.7566 41.2557 42.9784C41.162 43.1135 41.0101 43.1874 40.855 43.1874Z" fill="#2F2E41"/>
<path d="M35.8463 50.3542H28.815C28.5694 50.3542 28.3626 50.171 28.3335 49.9266L27.3286 41.2679C27.2995 41.0043 27.4902 40.7632 27.7551 40.7342C28.0201 40.7021 28.2625 40.895 28.2915 41.1586L29.2448 49.3929H35.4165L36.4634 41.1554C36.4958 40.8918 36.7349 40.7021 37.0063 40.7374C37.2713 40.7696 37.4587 41.0107 37.4264 41.2776L36.3245 49.9363C36.2954 50.1774 36.0886 50.3575 35.843 50.3575L35.8463 50.3542Z" fill="#2F2E41"/>
<path d="M38.5801 54.5341C38.5575 54.5341 38.5348 54.5341 38.5122 54.5308C38.2473 54.4955 38.0631 54.2511 38.0986 53.9875L39.7175 42.5026C39.7563 42.2389 40.0019 42.0557 40.2636 42.091C40.5286 42.1264 40.7127 42.3708 40.6772 42.6344L39.0583 54.1193C39.0228 54.3604 38.816 54.5341 38.5801 54.5341Z" fill="#2F2E41"/>
<path d="M37.5654 38.6378C37.378 38.6378 37.197 38.5285 37.1195 38.3453C37.0128 38.1009 37.1292 37.818 37.3747 37.7119C39.3394 36.8727 40.7191 33.2266 40.7191 31.5707C40.7191 29.7863 39.1293 27.2076 37.6526 25.5679C37.4749 25.3685 37.4911 25.0663 37.6914 24.8862C37.8917 24.7094 38.1987 24.7255 38.3764 24.9248C39.6076 26.2913 41.6917 29.2268 41.6917 31.5707C41.6917 33.4581 40.1989 37.5575 37.7593 38.5993C37.6979 38.625 37.6332 38.6378 37.5686 38.6378H37.5654Z" fill="#2F2E41"/>
<path d="M27.0959 38.3228C27.0378 38.3228 26.9764 38.3131 26.9182 38.2906C24.1555 37.2167 22.2587 33.4742 22.6465 31.1592C23.0633 28.6706 24.3364 27.0887 25.5675 25.5582C25.7388 25.346 25.91 25.1338 26.0781 24.9184C26.2429 24.7094 26.5466 24.6708 26.7599 24.8348C26.9699 24.9987 27.0087 25.301 26.8439 25.5132C26.6726 25.7286 26.5014 25.944 26.3269 26.1627C25.1733 27.5967 23.981 29.0789 23.6061 31.3199C23.3186 33.0369 24.7629 36.4193 27.2736 37.3935C27.5225 37.49 27.6452 37.7697 27.5483 38.0173C27.474 38.207 27.2898 38.326 27.0959 38.326V38.3228Z" fill="#2F2E41"/>
<path d="M35.8689 26.0309C35.772 26.0309 35.6751 26.0019 35.591 25.9441C35.3713 25.7897 35.3196 25.4907 35.4715 25.2721L37.2972 22.6774C36.6121 21.6903 35.7817 21.4234 34.641 21.8157C34.4245 21.8896 34.1854 21.8028 34.0691 21.6099C33.8494 21.2498 33.1611 20.9893 32.3533 20.9636C31.3387 20.9347 30.4178 21.253 30.0623 21.761C29.9525 21.9186 29.7586 21.9957 29.5712 21.9604C28.2463 21.6999 27.655 22.1919 27.3384 22.6838L28.269 24.2303C28.4079 24.4586 28.3336 24.7544 28.1042 24.8927C27.8747 25.0309 27.5775 24.957 27.4385 24.7287L26.3625 22.9442C26.2785 22.8028 26.2688 22.6259 26.3464 22.478C26.7729 21.6356 27.6583 20.7193 29.4678 20.9668C30.1786 20.2177 31.4098 19.9733 32.3824 20.0023C33.3615 20.0312 34.179 20.327 34.654 20.8061C36.1791 20.4042 37.4038 20.9572 38.2956 22.4459C38.3926 22.6098 38.3861 22.8124 38.2762 22.9699L36.2664 25.8283C36.1727 25.9633 36.0208 26.0341 35.8689 26.0341V26.0309Z" fill="#2F2E41"/>
<path d="M36.6121 26.645C36.5378 26.645 36.4667 26.6289 36.3956 26.5935C33.9883 25.3943 30.3563 25.3943 27.9458 26.5935C27.7067 26.7125 27.4159 26.6161 27.2963 26.3781C27.1768 26.1402 27.2737 25.8508 27.5128 25.7319C30.1689 24.4104 34.1725 24.4104 36.8286 25.7319C37.0677 25.8508 37.1646 26.1402 37.0451 26.3781C36.9611 26.5485 36.7898 26.645 36.6121 26.645Z" fill="#2F2E41"/>
<path d="M48.5678 31.7219C47.1945 31.7219 46.0732 30.6094 46.0732 29.2397C46.0732 27.87 47.1913 26.7575 48.5678 26.7575C49.9443 26.7575 51.0623 27.87 51.0623 29.2397C51.0623 30.6094 49.9443 31.7219 48.5678 31.7219ZM48.5678 27.7253C47.7277 27.7253 47.0426 28.4069 47.0426 29.2429C47.0426 30.0789 47.7277 30.7605 48.5678 30.7605C49.4079 30.7605 50.093 30.0789 50.093 29.2429C50.093 28.4069 49.4079 27.7253 48.5678 27.7253Z" fill="#2F2E41"/>
<path d="M53.7573 35.0528C52.8428 35.0528 52.0996 34.3133 52.0996 33.4034C52.0996 32.4935 52.8428 31.754 53.7573 31.754C54.6717 31.754 55.4117 32.4935 55.4117 33.4034C55.4117 34.3133 54.6685 35.0528 53.7573 35.0528ZM53.7573 32.7218C53.3792 32.7218 53.069 33.0272 53.069 33.4066C53.069 33.786 53.376 34.0915 53.7573 34.0915C54.1385 34.0915 54.4423 33.786 54.4423 33.4066C54.4423 33.0272 54.1353 32.7218 53.7573 32.7218Z" fill="#2F2E41"/>
</svg>
