<svg width="122" height="36" viewBox="0 0 122 36" fill="none" xmlns="http://www.w3.org/2000/svg">
<path d="M17.0633 15.843C16.0389 14.4238 14.6406 13.7104 12.876 13.7104C10.9692 13.7104 9.50367 14.3866 8.47928 15.739C7.45489 17.0914 6.94644 18.9565 6.94644 21.327V35.2448H0V0.305328H3.47695C4.43405 0.305328 5.24908 0.64714 5.92951 1.32334C6.60995 1.99954 6.95392 2.81692 6.95392 3.76063V11.7859C8.1802 9.75726 9.91494 8.47174 12.1656 7.92929C14.4163 7.38685 16.5623 7.52059 18.6036 8.33798C20.5103 9.14793 22.1105 10.4409 23.404 12.1945C24.6976 13.9556 25.3481 16.3929 25.3481 19.5064V35.2522H18.4989V21.2378C18.4989 20.2198 18.4092 19.2909 18.2447 18.4438C18.0652 17.5893 17.6764 16.7273 17.0633 15.843Z" fill="#3F736F"/>
<path d="M30.986 32.8075C29.5578 31.5888 28.5334 29.9466 27.9203 27.8809C27.3072 25.8151 27.0006 23.6676 27.0006 21.431C27.0006 19.603 27.2548 17.775 27.7708 15.9471C28.2792 14.1191 29.0793 12.5958 30.171 11.3771C31.9431 9.34854 34.2237 8.14478 37.0202 7.77324C39.8167 7.4017 42.3366 7.61718 44.5873 8.43457C47.1744 9.45258 49.0811 11.2137 50.3149 13.7178C51.4739 15.9545 52.0496 18.5627 52.0496 21.5424C52.0496 23.7122 51.8103 25.5699 51.3318 27.1304C50.8533 28.6908 50.2401 30.0135 49.4924 31.091C47.8549 33.3276 45.7762 34.7172 43.2563 35.2522C41.0056 35.8615 38.74 35.9135 36.4594 35.4008C34.1714 34.8881 32.3469 34.0261 30.986 32.8075ZM35.8911 14.9291C34.463 16.4895 33.8124 18.8079 33.947 21.8842C34.0816 24.968 34.6649 27.1155 35.6818 28.3341C36.093 28.8766 36.8034 29.3373 37.8278 29.7088C38.8522 30.0804 39.8915 30.1175 40.9458 29.8129C42.0001 29.5082 42.9423 28.7503 43.7573 27.5242C44.5723 26.3055 45.0135 24.3438 45.0883 21.6316C45.0883 19.1943 44.692 17.3663 43.9143 16.1477C43.1292 14.9291 42.2244 14.1488 41.2075 13.8145C40.1831 13.4726 39.1662 13.4578 38.1418 13.7624C37.1174 14.0671 36.3697 14.4535 35.8911 14.9291Z" fill="#3F736F"/>
<path d="M77.9211 35.2448H70.87V19.3949V17.9757C70.87 16.3483 70.3765 15.1668 69.3895 14.4238C68.4025 13.6807 67.2959 13.3091 66.0696 13.3091C64.8433 13.3091 63.7516 13.6807 62.802 14.4238C61.8449 15.1668 61.3738 16.3558 61.3738 17.9757V35.2448H54.218V19.3949C54.218 14.7879 55.4293 11.7115 57.8445 10.1511C60.2597 8.59062 62.9366 7.75096 65.8677 7.60977C67.4379 7.60977 68.9708 7.78067 70.4662 8.11506C71.9617 8.45687 73.33 9.13308 74.5563 10.1437C75.5807 9.26683 76.7846 8.63522 78.1828 8.26368C79.5811 7.89214 81.0242 7.66921 82.5271 7.60233C85.5256 7.60233 88.2847 8.38257 90.8045 9.9356C93.3244 11.4961 94.5881 14.6393 94.5881 19.3801V35.2225H91.0139C89.9895 35.2225 89.1595 34.9029 88.509 34.2565C87.8585 33.6174 87.537 32.7852 87.537 31.7671V17.9534C87.537 16.326 87.0435 15.1445 86.0564 14.4015C85.0694 13.6584 83.9628 13.2869 82.7365 13.2869C81.5102 13.2869 80.4036 13.6584 79.4166 14.4015C78.4296 15.1445 77.9361 16.3335 77.9361 17.9534V19.3727V35.2448H77.9211Z" fill="#3F736F"/>
<path d="M116.482 26.9149H121.589C120.841 29.7608 119.405 31.9306 117.297 33.4168C115.181 34.9772 112.526 35.7501 109.326 35.7501C105.445 35.7501 102.409 34.4943 100.226 31.9901C98.0427 29.5528 96.9585 26.0678 96.9585 21.5276C96.9585 17.1954 98.0128 13.807 100.129 11.3697C102.312 8.86557 105.341 7.60977 109.229 7.60977C113.319 7.60977 116.489 8.8284 118.732 11.2657C120.916 13.7699 122 17.2549 122 21.7282C122 22.0032 122 22.2335 122 22.4416C122 22.6422 122 22.7834 122 22.8502C122 23.1921 121.963 23.4299 121.895 23.5636H104.211C104.279 25.6665 104.787 27.2195 105.744 28.2375C106.627 29.3224 107.958 29.8649 109.73 29.8649C110.889 29.8649 111.876 29.6271 112.691 29.1515C112.893 29.0847 113.08 28.9658 113.252 28.7948C113.424 28.6239 113.61 28.4382 113.812 28.2375C113.88 28.0369 114.134 27.762 114.575 27.4276C115.031 27.0858 115.667 26.9149 116.482 26.9149ZM104.219 18.9937H114.642C114.508 17.1657 114.029 15.8133 113.214 14.9291C112.324 13.9779 111.068 13.5098 109.431 13.5098C107.928 13.5098 106.701 13.9854 105.752 14.9291C104.795 15.8802 104.286 17.2326 104.219 18.9937Z" fill="#3F736F"/>
</svg>
