<svg width="122" height="136" viewBox="0 0 122 136" fill="none" xmlns="http://www.w3.org/2000/svg">
<path d="M84.1722 44.5251C87.4174 39.9329 89.3241 34.3375 89.3241 28.2963C89.3241 12.6694 76.5753 0 60.8504 0C45.1256 0 32.3768 12.6694 32.3768 28.2963C32.3768 34.3375 34.2835 39.9329 37.5287 44.5251C-0.515948 58.4801 -7.87363 97.4693 10.214 121.902C13.4218 126.241 17.4371 130.12 22.2301 133.315C30.0514 138.539 42.6132 136.273 41.9851 123.269V116.507C41.9851 110.079 39.1438 107.664 34.8368 107.664H33.962C30.986 107.664 29.6027 103.577 31.831 101.4L55.1228 81.6863C58.6072 78.283 63.2133 78.179 66.8099 81.6863L90.1017 101.4C92.33 103.585 90.9392 107.664 87.9707 107.664H87.0958C82.7889 107.664 79.9475 110.087 79.9475 116.507C79.9475 127.921 79.8877 123.046 80.1345 125.164C81.6225 137.982 94.0572 136.837 99.8746 133.315C104.802 130.328 108.675 126.241 111.891 121.902C129.978 97.4693 122.209 58.4801 84.1722 44.5251Z" fill="#3F736F"/>
<path d="M68.1484 124.71C68.1484 126.063 67.0417 127.163 65.6808 127.163H56.3117C54.9509 127.163 53.8442 126.063 53.8442 124.71V115.4C53.8442 114.047 54.9509 112.948 56.3117 112.948H65.6808C67.0417 112.948 68.1484 114.047 68.1484 115.4V124.71Z" fill="#3F736F"/>
</svg>
