<svg width="40" height="40" viewBox="0 0 40 40" fill="none" xmlns="http://www.w3.org/2000/svg">
<path d="M19.4029 28.4996H10.6277L9.1613 21.4214L6.22852 22.1562L6.67997 36.4082H19.4029C18.4078 35.2383 17.9992 33.4391 17.7553 31.4653H19.4029V28.4996Z" fill="#2F2E41"/>
<path d="M1.44375 36.7377C1.17024 36.7377 0.949463 36.5169 0.949463 36.2434V29.5145C0.949463 29.5145 0.949463 29.4881 0.949463 29.4783C1.46352 22.6274 6.47561 20.9699 9.35566 21.0754C9.62916 21.0852 9.84335 21.3126 9.83346 21.5861C9.82358 21.8596 9.58632 22.0771 9.3227 22.0639C8.62411 22.0409 2.50812 22.0409 1.93804 29.5343V36.2434C1.93804 36.5169 1.71726 36.7377 1.44375 36.7377Z" fill="#2F2E41"/>
<path d="M6.72925 36.5334C6.46563 36.5334 6.24815 36.3258 6.23497 36.0589L5.66488 22.6604C5.6517 22.3869 5.8659 22.1562 6.1394 22.1463C6.40632 22.1331 6.64357 22.3473 6.65346 22.6208L7.22354 36.0193C7.23672 36.2929 7.02253 36.5235 6.74902 36.5334C6.74243 36.5334 6.73584 36.5334 6.72925 36.5334Z" fill="#2F2E41"/>
<path d="M18.9086 29.1586H10.4695C10.2257 29.1586 10.0181 28.9807 9.9818 28.7368L8.90426 21.5169C8.86472 21.2467 9.04924 20.9963 9.31945 20.9534C9.59296 20.9106 9.8401 21.0984 9.88294 21.3687L10.8979 28.1668H18.9119C19.1854 28.1668 19.4062 28.3875 19.4062 28.661C19.4062 28.9345 19.1854 29.1553 18.9119 29.1553L18.9086 29.1586Z" fill="#2F2E41"/>
<path d="M22.9586 10.5767C22.8334 10.5767 22.7049 10.5273 22.6093 10.4317C22.4149 10.2373 22.4149 9.92422 22.6093 9.7331C23.4035 8.93894 23.2486 8.4809 23.0179 7.7823C22.8597 7.30449 22.6785 6.76078 22.8103 6.09514C23.0047 5.12633 22.461 4.76385 21.6735 4.35194L21.6273 4.32889C21.1858 4.09822 20.9353 3.65995 20.6948 3.23816C20.3784 2.68126 20.1049 2.20345 19.4557 2.07164C18.2662 1.83438 17.9828 1.65643 17.5511 1.33679C17.4687 1.27748 17.3797 1.20828 17.2644 1.13249C16.7339 0.779895 14.9314 1.09623 14.5656 1.41587C14.5129 1.63006 14.3184 1.79154 14.0845 1.79154C13.867 1.79154 13.6429 1.76188 13.4024 1.72893C13.0003 1.67291 12.5489 1.6103 12.2919 1.74211C12.0348 1.87063 11.7877 2.14084 11.5702 2.38139C11.267 2.71751 10.9869 3.04373 10.5783 3.02396C10.0577 3.03714 9.39864 3.42598 9.39864 3.89061C9.39864 4.6617 9.39863 5.82492 8.61765 5.82492C8.12996 5.82492 8.01133 6.03583 7.7543 6.87282C7.72135 6.98486 7.6851 7.10019 7.64556 7.21223C7.48739 7.69004 7.27979 8.86644 8.7989 9.47277C9.05263 9.57492 9.17456 9.86161 9.0757 10.1153C8.97355 10.3691 8.68685 10.4943 8.43312 10.3921C6.55153 9.64083 6.32746 8.03933 6.70971 6.89918C6.74596 6.79373 6.77891 6.68499 6.80856 6.58284C7.01946 5.90072 7.29955 4.98464 8.35074 4.85283C8.3771 4.70784 8.41006 4.42115 8.41006 3.89391C8.41006 2.83613 9.49419 2.0947 10.5256 2.04198C10.6014 1.98596 10.7365 1.83438 10.8387 1.72234C11.1023 1.43236 11.4285 1.07317 11.8503 0.862274C12.3808 0.595358 12.9938 0.681032 13.5375 0.756823C13.6297 0.770004 13.7187 0.783187 13.8011 0.789778C13.8999 0.677739 14.0383 0.578887 14.2097 0.48662C15.0698 0.0252847 16.9645 -0.248224 17.8114 0.318559C17.9399 0.404235 18.0421 0.480027 18.1343 0.545932C18.4672 0.789781 18.6154 0.901823 19.6469 1.10613C20.7343 1.32362 21.2055 2.14743 21.5482 2.75046C21.7262 3.06351 21.8942 3.35678 22.0788 3.45564L22.1249 3.4787C22.7741 3.81812 24.1284 4.5233 23.7758 6.29285C23.6934 6.70146 23.8121 7.06064 23.9505 7.47255C24.2075 8.24693 24.5271 9.20915 23.3046 10.4317C23.209 10.5273 23.0805 10.5767 22.9553 10.5767H22.9586ZM10.5783 2.03868C10.5783 2.03868 10.5684 2.03868 10.5651 2.03868C10.5717 2.03868 10.575 2.03868 10.5816 2.03868C10.5816 2.03868 10.5816 2.03868 10.5783 2.03868Z" fill="#2F2E41"/>
<path d="M17.8278 10.7184C17.7751 10.7184 17.7224 10.7118 17.6729 10.692C15.7222 10.0428 15.0796 7.86138 15.0532 7.76912C14.9774 7.5055 15.129 7.23199 15.3926 7.15949C15.6562 7.087 15.9265 7.23528 16.0022 7.4989C16.0088 7.52527 16.5394 9.27505 17.986 9.75615C18.2463 9.84183 18.3847 10.1219 18.299 10.3823C18.2298 10.5899 18.0354 10.7217 17.8311 10.7217L17.8278 10.7184Z" fill="#2F2E41"/>
<path d="M22.4345 10.7184C22.1609 10.7184 21.9402 10.4976 21.9402 10.2241C21.9402 9.47938 21.034 8.58966 20.688 8.30627C20.4771 8.13491 20.4408 7.82516 20.6122 7.61097C20.7835 7.40008 21.0933 7.36383 21.3075 7.53518C21.4722 7.66699 22.932 8.87305 22.932 10.2241C22.932 10.4976 22.7112 10.7184 22.4377 10.7184H22.4345Z" fill="#2F2E41"/>
<path d="M38.3504 31.7948H16.9313C16.6578 31.7948 16.437 31.574 16.437 31.3005C16.437 31.027 16.6578 30.8062 16.9313 30.8062H38.3504C38.6239 30.8062 38.8447 31.027 38.8447 31.3005C38.8447 31.574 38.6239 31.7948 38.3504 31.7948Z" fill="#2F2E41"/>
<path d="M27.4497 40C21.9236 40 17.4255 36.5136 17.4255 32.2298V31.3005C17.4255 31.027 17.6463 30.8062 17.9198 30.8062C18.1933 30.8062 18.4141 31.027 18.4141 31.3005V32.2298C18.4141 35.9699 22.4673 39.0114 27.4497 39.0114C31.9675 39.0114 35.8163 36.4774 36.4062 33.1195C36.4523 32.8526 36.7094 32.6714 36.9796 32.7175C37.2498 32.7636 37.4277 33.0207 37.3816 33.2909C36.7094 37.1167 32.442 40 27.4497 40Z" fill="#2F2E41"/>
<path d="M26.1584 31.1358C25.8848 31.1358 25.6641 30.915 25.6641 30.6415V24.9704C25.6641 23.0987 27.1865 21.5795 29.0549 21.5795H29.849C31.7207 21.5795 33.2398 23.1019 33.2398 24.9704V26.3576C33.2398 26.6312 33.0191 26.8519 32.7456 26.8519C32.4721 26.8519 32.2513 26.6312 32.2513 26.3576V24.9704C32.2513 23.6457 31.1737 22.5681 29.849 22.5681H29.0549C27.7302 22.5681 26.6526 23.6457 26.6526 24.9704V30.6415C26.6526 30.915 26.4319 31.1358 26.1584 31.1358Z" fill="#2F2E41"/>
<path d="M22.204 31.7948C21.9305 31.7948 21.7097 31.574 21.7097 31.3005V28.9939C21.7097 28.7204 21.9305 28.4996 22.204 28.4996C22.4775 28.4996 22.6983 28.7204 22.6983 28.9939V31.3005C22.6983 31.574 22.4775 31.7948 22.204 31.7948Z" fill="#2F2E41"/>
<path d="M23.8516 29.1586H20.8859C20.6124 29.1586 20.3916 28.9378 20.3916 28.6643C20.3916 28.3908 20.6124 28.17 20.8859 28.17H23.8516C24.1251 28.17 24.3459 28.3908 24.3459 28.6643C24.3459 28.9378 24.1251 29.1586 23.8516 29.1586Z" fill="#2F2E41"/>
<path d="M30.1125 31.7948C29.8389 31.7948 29.6182 31.574 29.6182 31.3005V28.9939C29.6182 28.7204 29.8389 28.4996 30.1125 28.4996C30.386 28.4996 30.6067 28.7204 30.6067 28.9939V31.3005C30.6067 31.574 30.386 31.7948 30.1125 31.7948Z" fill="#2F2E41"/>
<path d="M31.4307 29.1586H28.465C28.1915 29.1586 27.9707 28.9378 27.9707 28.6643C27.9707 28.3908 28.1915 28.17 28.465 28.17H31.4307C31.7042 28.17 31.925 28.3908 31.925 28.6643C31.925 28.9378 31.7042 29.1586 31.4307 29.1586Z" fill="#2F2E41"/>
<path d="M27.7562 7.11337L26.6588 9.22563C25.7559 10.9655 27.654 13.7434 27.654 13.7434L27.1235 14.7682C26.6621 15.658 27.0081 16.752 27.8979 17.2133L28.4844 17.5165C29.3741 17.9778 30.4682 17.6318 30.9295 16.7421L31.4765 15.6744C33.1011 16.2083 34.9167 15.4998 35.7307 13.9345L36.828 11.8223L27.7628 7.11667L27.7562 7.11337Z" fill="#BF6C43"/>
<path d="M32.584 16.3467C32.1622 16.3467 31.7371 16.2808 31.3153 16.1423C31.055 16.0567 30.9133 15.7766 30.999 15.5196C31.0847 15.2592 31.3615 15.1175 31.6218 15.2032C33.0486 15.6711 34.5875 15.0417 35.2828 13.7072L36.1528 12.0332L27.9641 7.78229L27.0941 9.45629C26.7184 10.1812 26.646 11.0083 26.8931 11.786C27.1402 12.5637 27.6741 13.1997 28.399 13.5754L29.2162 14.0004C29.4601 14.1257 29.5524 14.4255 29.4271 14.6661C29.3019 14.9099 29.0021 15.0022 28.7615 14.877L27.9443 14.4519C26.9854 13.9543 26.2769 13.114 25.9507 12.0826C25.6244 11.0512 25.72 9.95716 26.2176 8.99824L27.3149 6.88599C27.3742 6.77065 27.4797 6.68168 27.6049 6.64214C27.7301 6.6026 27.8652 6.61248 27.9805 6.67509L37.0458 11.3807C37.2896 11.5059 37.3819 11.8058 37.2567 12.0464L36.1593 14.1586C35.4443 15.5327 34.0537 16.3434 32.5807 16.3434L32.584 16.3467Z" fill="#2F2E41"/>
<path d="M29.3118 18.2151C28.9526 18.2151 28.5901 18.1327 28.254 17.9547L27.6675 17.6516C26.5405 17.065 26.0956 15.6711 26.6822 14.5409L27.2127 13.516C27.338 13.2722 27.6378 13.1799 27.8784 13.3051C28.1222 13.4304 28.2145 13.7302 28.0893 13.9708L27.5587 14.9956C27.2226 15.6415 27.4763 16.4389 28.1222 16.7718L28.7088 17.0749C29.3546 17.411 30.1521 17.1573 30.4849 16.5114L31.0154 15.4866C31.1407 15.2461 31.4405 15.1505 31.6811 15.2757C31.9249 15.4009 32.0172 15.7008 31.892 15.9414L31.3615 16.9662C30.9495 17.757 30.1455 18.2085 29.3118 18.2085V18.2151Z" fill="#2F2E41"/>
<path d="M22.8627 25.8633C22.7869 25.8633 22.7111 25.8469 22.6419 25.8106C22.3981 25.6887 22.2992 25.3888 22.4245 25.1483L26.7281 16.6136C26.85 16.3697 27.1499 16.2742 27.3904 16.3928C27.6343 16.5147 27.7331 16.8146 27.6112 17.0551L23.3076 25.5898C23.2219 25.7612 23.0473 25.8633 22.866 25.8633H22.8627Z" fill="#2F2E41"/>
<path d="M28.1354 20.591C28.0629 20.591 27.9871 20.5745 27.9179 20.5415C27.6741 20.4229 27.5719 20.1263 27.6906 19.8792L28.7681 17.678C28.8868 17.4341 29.1833 17.332 29.4305 17.4506C29.6743 17.5692 29.7765 17.8658 29.6578 18.1129L28.5803 20.3142C28.4946 20.4888 28.32 20.591 28.1354 20.591Z" fill="#2F2E41"/>
<path d="M37.5662 12.5769C37.3355 12.5769 37.1049 12.5242 36.8841 12.4089L27.2323 7.40008C26.5074 7.02442 26.224 6.12482 26.5996 5.39987C26.9753 4.67491 27.8749 4.38822 28.5998 4.76717L38.2516 9.77596C38.9766 10.1516 39.26 11.0479 38.8843 11.7762C38.6207 12.2836 38.1 12.5769 37.5662 12.5769ZM27.9177 5.59099C27.8683 5.59099 27.8189 5.59758 27.7694 5.61406C27.6442 5.6536 27.5421 5.73927 27.4795 5.8579C27.3542 6.09846 27.4498 6.39832 27.6903 6.52354L37.3421 11.5323C37.5827 11.6575 37.8826 11.562 38.0078 11.3214C38.133 11.0809 38.0374 10.781 37.7969 10.6558L28.1451 5.64701C28.0726 5.61076 27.9968 5.59099 27.9177 5.59099Z" fill="#2F2E41"/>
<path d="M21.5712 12.1551C21.5317 12.1551 21.4921 12.1518 21.4526 12.1419C21.0308 12.0365 20.5101 11.8091 19.9071 11.5455C18.7669 11.0479 17.35 10.4284 16.1044 10.4284C14.4963 10.4284 12.7169 10.4284 11.4054 9.14984C11.2076 10.1615 10.6672 11.0248 10.0741 11.4796C9.9093 11.6081 9.7017 11.6476 9.4974 11.5982C8.98663 11.473 8.53518 10.7085 8.24849 10.089C8.13316 9.84184 8.24191 9.54857 8.48905 9.43324C8.7362 9.3179 9.02947 9.42665 9.1448 9.67379C9.29639 10.0033 9.50729 10.3493 9.65557 10.5338C10.2322 9.95388 10.6606 8.8269 10.4398 7.72959C10.3904 7.48574 10.5288 7.24519 10.7628 7.1661C10.9967 7.08701 11.2538 7.19246 11.3658 7.41324C12.3807 9.44312 14.1042 9.44312 16.1044 9.44312C17.5543 9.44312 19.0767 10.1088 20.3025 10.6426C20.721 10.8271 21.1 10.9919 21.4064 11.0973C21.7096 10.6722 21.7953 10.1747 21.7986 10.1681C21.8414 9.89787 22.0984 9.71333 22.3654 9.75946C22.6356 9.8023 22.8168 10.056 22.774 10.3262C22.7674 10.3658 22.6026 11.3346 21.9238 12.0134C21.8315 12.109 21.703 12.1584 21.5745 12.1584L21.5712 12.1551Z" fill="#2F2E41"/>
<path d="M9.15805 14.4684C8.92738 14.4684 8.71978 14.3036 8.67365 14.0697C8.67365 14.0598 8.67365 14.0565 8.67365 14.0565C8.66047 14.0334 8.57809 13.9774 8.52207 13.9379C8.2255 13.7303 7.77405 13.4139 7.54338 12.4517C7.18749 10.9721 7.58621 10.3394 7.98494 10.0692C8.37378 9.80231 8.89773 9.82209 9.31622 10.1154C9.5403 10.2702 9.59302 10.58 9.43815 10.8041C9.28327 11.0282 8.97352 11.0809 8.74944 10.926C8.68683 10.8832 8.59456 10.8502 8.54184 10.8897C8.45616 10.9491 8.28151 11.3017 8.50559 12.2243C8.65058 12.8241 8.86477 12.9756 9.09214 13.1338C9.29315 13.2755 9.56666 13.4666 9.64904 13.8851C9.70176 14.1521 9.52712 14.4124 9.2602 14.4651C9.22725 14.4717 9.19759 14.475 9.16464 14.475L9.15805 14.4684Z" fill="#2F2E41"/>
<path d="M22.1116 14.4618C22.0819 14.4618 22.049 14.4618 22.0193 14.4519C21.7524 14.3992 21.5745 14.1454 21.6272 13.8785C21.7096 13.4633 21.9831 13.2689 22.1841 13.1305C22.4115 12.9723 22.6256 12.8207 22.7706 12.221C22.9914 11.2983 22.8201 10.9458 22.7344 10.8864C22.6817 10.8502 22.5894 10.8798 22.5268 10.9227C22.3027 11.0776 21.9963 11.0248 21.8381 10.8008C21.6799 10.5767 21.7359 10.2702 21.96 10.1121C22.3785 9.81877 22.8991 9.80229 23.2913 10.0659C23.69 10.3361 24.0887 10.9688 23.7329 12.4484C23.5022 13.4106 23.0507 13.7269 22.7542 13.9345C22.6981 13.9741 22.6158 14.0301 22.6026 14.0532C22.5564 14.2904 22.3456 14.4585 22.1149 14.4585L22.1116 14.4618Z" fill="#2F2E41"/>
<path d="M15.6365 21.5433C12.2523 21.5433 9.32283 18.3897 8.67037 14.0466C8.63083 13.7764 8.81537 13.5259 9.08558 13.4831C9.35579 13.4403 9.60622 13.6281 9.64906 13.8983C10.229 17.7538 12.7466 20.5547 15.6365 20.5547C18.5265 20.5547 21.044 17.7538 21.624 13.8983C21.6636 13.6281 21.914 13.4403 22.1875 13.4831C22.4577 13.5227 22.6422 13.7764 22.6027 14.0466C21.9502 18.3897 19.0175 21.5433 15.6365 21.5433Z" fill="#2F2E41"/>
<path d="M13.966 14.0004H12.6479C12.3743 14.0004 12.1536 13.7797 12.1536 13.5062C12.1536 13.2327 12.3743 13.0119 12.6479 13.0119H13.966C14.2395 13.0119 14.4602 13.2327 14.4602 13.5062C14.4602 13.7797 14.2395 14.0004 13.966 14.0004Z" fill="#2F2E41"/>
<path d="M18.9086 14.0004H17.5905C17.317 14.0004 17.0962 13.7797 17.0962 13.5062C17.0962 13.2327 17.317 13.0119 17.5905 13.0119H18.9086C19.1821 13.0119 19.4029 13.2327 19.4029 13.5062C19.4029 13.7797 19.1821 14.0004 18.9086 14.0004Z" fill="#2F2E41"/>
<path d="M15.6365 18.9631C14.9576 18.9631 14.2656 18.7127 13.6362 18.2348C13.4187 18.0701 13.3759 17.7603 13.5407 17.5428C13.7054 17.3254 14.0152 17.2825 14.2327 17.4473C15.1553 18.1459 16.1176 18.1459 17.0369 17.4473C17.2544 17.2825 17.5642 17.3254 17.7289 17.5428C17.8937 17.7603 17.8509 18.0701 17.6334 18.2348C17.0073 18.7094 16.3153 18.9631 15.6332 18.9631H15.6365Z" fill="#2F2E41"/>
</svg>
