<svg width="122" height="10" viewBox="0 0 122 10" fill="none" xmlns="http://www.w3.org/2000/svg">
<path d="M1.28584 0.689246V8.78133H6.13861V9.79936H0.0595703V0.681808H1.28584V0.689246Z" fill="#3F736F"/>
<path d="M7.42497 3.45353C7.61191 2.88137 7.88858 2.36863 8.25497 1.93022C8.62136 1.4918 9.08495 1.13513 9.63079 0.867622C10.1766 0.607546 10.8197 0.473793 11.545 0.473793C12.2703 0.473793 12.9133 0.607546 13.4592 0.867622C14.005 1.13513 14.4686 1.48437 14.835 1.93022C15.2014 2.37606 15.4781 2.88137 15.665 3.45353C15.8519 4.0257 15.9417 4.6276 15.9417 5.24435C15.9417 5.8611 15.8519 6.463 15.665 7.03517C15.4781 7.60733 15.2014 8.12005 14.835 8.55846C14.4686 9.00431 14.005 9.35356 13.4592 9.61364C12.9133 9.87372 12.2703 10 11.545 10C10.8197 10 10.1766 9.87372 9.63079 9.61364C9.08495 9.35356 8.62136 9.00431 8.25497 8.55846C7.88858 8.12005 7.61191 7.60733 7.42497 7.03517C7.23804 6.463 7.14832 5.8611 7.14832 5.24435C7.14832 4.6276 7.23804 4.0257 7.42497 3.45353ZM8.54657 6.60417C8.66621 7.05001 8.85315 7.45127 9.11485 7.80795C9.36908 8.16462 9.69809 8.45443 10.1019 8.66992C10.5056 8.88541 10.9842 8.99687 11.5375 8.99687C12.0908 8.99687 12.5769 8.88541 12.9732 8.66992C13.3769 8.45443 13.7059 8.16462 13.9602 7.80795C14.2144 7.45127 14.4088 7.05001 14.5284 6.60417C14.6481 6.15832 14.7079 5.70506 14.7079 5.24435C14.7079 4.78364 14.6481 4.33035 14.5284 3.88451C14.4088 3.43866 14.2219 3.03741 13.9602 2.68073C13.7059 2.32405 13.3769 2.03425 12.9732 1.81876C12.5694 1.60327 12.0908 1.4918 11.5375 1.4918C10.9842 1.4918 10.4982 1.60327 10.1019 1.81876C9.69809 2.03425 9.36908 2.32405 9.11485 2.68073C8.86063 3.03741 8.66621 3.43866 8.54657 3.88451C8.42693 4.33035 8.36712 4.78364 8.36712 5.24435C8.36712 5.70506 8.42693 6.15832 8.54657 6.60417Z" fill="#3F736F"/>
<path d="M20.0991 9.80678L16.8763 0.689247H18.1849L20.8094 8.58815H20.8319L23.4788 0.689247H24.75L21.4898 9.80678H20.0991Z" fill="#3F736F"/>
<path d="M32.5039 0.689247V1.7147H27.3895V4.61269H32.1525V5.63813H27.3895V8.78877H32.5413V9.80678H26.1707V0.689247H32.5039Z" fill="#3F736F"/>
<path d="M42.2469 9.62101C41.7683 9.8365 41.2823 9.94055 40.7738 9.94055C40.1607 9.94055 39.6597 9.84395 39.2859 9.65818C38.912 9.47241 38.6204 9.24205 38.411 8.98197C38.2091 8.7219 38.0671 8.44696 38.0072 8.16459C37.9399 7.88222 37.91 7.65186 37.91 7.45866C37.91 7.10198 37.9698 6.7899 38.082 6.51496C38.1942 6.24002 38.3512 5.99481 38.5456 5.77932C38.74 5.56383 38.9643 5.37062 39.226 5.19228C39.4877 5.02138 39.7644 4.85047 40.056 4.70185C39.9289 4.52351 39.8018 4.3526 39.6822 4.18913C39.5625 4.02565 39.4504 3.86217 39.3532 3.69869C39.2559 3.53522 39.1812 3.35689 39.1214 3.17112C39.069 2.98535 39.0391 2.78473 39.0391 2.55437C39.0391 2.30916 39.084 2.07137 39.1737 1.84844C39.2634 1.62552 39.398 1.42489 39.57 1.24655C39.742 1.07565 39.9588 0.934463 40.2205 0.830432C40.4748 0.726402 40.7738 0.674393 41.1103 0.674393C41.3945 0.674393 41.6711 0.711527 41.9403 0.793265C42.2095 0.867572 42.4488 0.986465 42.6507 1.14251C42.86 1.29856 43.0245 1.49919 43.1442 1.72955C43.2713 1.9599 43.3311 2.23484 43.3311 2.5395C43.3311 2.81444 43.2862 3.0671 43.189 3.29745C43.0918 3.53523 42.9647 3.74329 42.8002 3.94392C42.6357 4.13712 42.4562 4.31545 42.2469 4.4715C42.045 4.62755 41.8282 4.76872 41.6038 4.90247L43.2638 6.90879C43.4358 6.43322 43.533 5.95765 43.5554 5.48951H44.5948C44.5723 5.76445 44.5424 5.9948 44.5125 6.188C44.4826 6.3812 44.4452 6.55953 44.4003 6.71558C44.3555 6.87906 44.2957 7.03511 44.2284 7.19116C44.1611 7.34721 44.0788 7.53298 43.9816 7.73361L45.7687 9.79192H44.3405L43.361 8.65502C43.0993 9.09343 42.7254 9.41295 42.2469 9.62101ZM40.0485 5.77188C39.8541 5.8982 39.6896 6.04681 39.5401 6.20286C39.3905 6.36633 39.2784 6.54468 39.1961 6.74531C39.1139 6.94594 39.069 7.18373 39.069 7.45124C39.069 7.68159 39.1214 7.88966 39.2186 8.08286C39.3158 8.27606 39.4504 8.43953 39.6074 8.56585C39.7719 8.69961 39.9588 8.80363 40.1682 8.87793C40.3775 8.95224 40.5944 8.99683 40.8187 8.99683C41.2374 8.99683 41.6113 8.90024 41.9403 8.70704C42.2693 8.51384 42.546 8.24633 42.7703 7.91194L40.6617 5.39291C40.4448 5.51923 40.2429 5.63813 40.0485 5.77188ZM41.4318 3.92163C41.5739 3.8176 41.7085 3.70612 41.8281 3.5798C41.9478 3.45348 42.045 3.3123 42.1272 3.14883C42.202 2.99278 42.2394 2.81445 42.2394 2.62125C42.2394 2.36117 42.1422 2.13081 41.9553 1.93761C41.7683 1.74441 41.5066 1.64782 41.1851 1.64782C40.9309 1.64782 40.6916 1.72954 40.4673 1.88559C40.2429 2.04163 40.1308 2.28686 40.1308 2.62125C40.1308 2.755 40.1607 2.89618 40.213 3.02993C40.2654 3.16368 40.3402 3.29744 40.4224 3.4312C40.5047 3.56495 40.6019 3.69127 40.7065 3.81759C40.8112 3.94391 40.9084 4.07025 41.0131 4.204C41.1477 4.11483 41.2898 4.01823 41.4318 3.92163Z" fill="#3F736F"/>
<path d="M50.0756 1.70726V0.681808H57.4108V1.70726H54.3526V9.79936H53.1338V1.70726H50.0756Z" fill="#3F736F"/>
<path d="M61.5384 0.689247L65.12 9.80678H63.7741L62.7721 7.06483H58.8914L57.867 9.80678H56.6183L60.1924 0.689247H61.5384ZM62.3833 6.0394L60.8579 1.78901H60.8355L59.2802 6.0394H62.3833Z" fill="#3F736F"/>
<path d="M67.6922 0.689247V5.23687L72.3431 0.689247H73.9208L70.055 4.36748L74.0778 9.80678H72.5375L69.225 5.19972L67.6996 6.619V9.80678H66.4808V0.689247H67.6922Z" fill="#3F736F"/>
<path d="M81.8168 0.689247V1.7147H76.7023V4.61269H81.4728V5.63813H76.7023V8.78877H81.8542V9.80678H75.4835V0.689247H81.8168Z" fill="#3F736F"/>
<path d="M93.3469 1.97478C92.8833 1.65526 92.3225 1.49176 91.6869 1.49176C91.1411 1.49176 90.67 1.5958 90.2812 1.79643C89.8923 2.00449 89.5708 2.27201 89.3166 2.62125C89.0624 2.96307 88.8754 3.3569 88.7558 3.80274C88.6362 4.24859 88.5763 4.70185 88.5763 5.18485C88.5763 5.70501 88.6362 6.19544 88.7558 6.65615C88.8754 7.11686 89.0624 7.52555 89.3166 7.86737C89.5708 8.20918 89.8923 8.48411 90.2886 8.69217C90.6849 8.8928 91.156 8.99683 91.7019 8.99683C92.1056 8.99683 92.4646 8.92997 92.7786 8.79621C93.0927 8.66246 93.3618 8.48411 93.5861 8.24632C93.8105 8.01597 93.9899 7.73362 94.117 7.40666C94.2441 7.08714 94.3264 6.73789 94.3488 6.35892H95.5676C95.448 7.51069 95.0517 8.40237 94.3713 9.04142C93.6908 9.68046 92.7711 9.99999 91.5972 9.99999C90.8868 9.99999 90.2662 9.88111 89.7353 9.63589C89.2044 9.39068 88.7633 9.05629 88.4118 8.63273C88.0604 8.20918 87.7987 7.70389 87.6192 7.12429C87.4473 6.54469 87.3575 5.92793 87.3575 5.25916C87.3575 4.5904 87.4473 3.97365 87.6417 3.38662C87.8286 2.79959 88.1053 2.29429 88.4717 1.8633C88.838 1.43232 89.2867 1.09052 89.8325 0.837876C90.3784 0.585231 90.999 0.4589 91.7019 0.4589C92.1804 0.4589 92.6365 0.525785 93.0627 0.652107C93.4889 0.77843 93.8703 0.964184 94.2068 1.21683C94.5432 1.46204 94.8199 1.77414 95.0442 2.14567C95.2686 2.51721 95.4106 2.9482 95.4854 3.4312H94.2666C94.117 2.78473 93.8179 2.30173 93.3469 1.97478Z" fill="#3F736F"/>
<path d="M101.37 0.689247L104.952 9.80678H103.606L102.604 7.06483H98.7231L97.6912 9.80678H96.4425L100.017 0.689247H101.37ZM102.215 6.0394L100.69 1.78901H100.667L99.1119 6.0394H102.215Z" fill="#3F736F"/>
<path d="M110.619 0.689247C111.494 0.689247 112.175 0.904728 112.668 1.32828C113.162 1.75183 113.409 2.33887 113.409 3.07451C113.409 3.62439 113.281 4.11481 113.027 4.53094C112.773 4.94706 112.369 5.23688 111.816 5.38549V5.40778C112.085 5.4598 112.294 5.54153 112.466 5.66043C112.631 5.77932 112.765 5.92049 112.863 6.0914C112.96 6.25488 113.035 6.44065 113.08 6.64871C113.124 6.85677 113.162 7.06484 113.192 7.28776C113.207 7.51069 113.222 7.73361 113.229 7.96397C113.237 8.19432 113.259 8.41725 113.296 8.64017C113.326 8.86309 113.379 9.07113 113.446 9.27176C113.513 9.47239 113.603 9.65075 113.73 9.79936H112.369C112.279 9.70276 112.227 9.57643 112.197 9.42039C112.167 9.25691 112.152 9.07857 112.137 8.87793C112.13 8.6773 112.122 8.46182 112.107 8.23146C112.1 8.00111 112.078 7.77818 112.033 7.55526C112.003 7.33234 111.958 7.12427 111.906 6.92364C111.853 6.72301 111.771 6.55212 111.659 6.4035C111.547 6.25489 111.405 6.13599 111.225 6.04682C111.046 5.95765 110.806 5.91307 110.507 5.91307H107.524V9.80678H106.305V0.689247H110.619ZM110.874 4.82819C111.128 4.7836 111.352 4.70186 111.547 4.57554C111.741 4.44922 111.891 4.28573 112.01 4.07767C112.122 3.86961 112.182 3.60211 112.182 3.26772C112.182 2.80701 112.055 2.43547 111.793 2.14567C111.539 1.85587 111.12 1.7147 110.545 1.7147H107.516V4.89506H110.059C110.35 4.88763 110.619 4.86534 110.874 4.82819Z" fill="#3F736F"/>
<path d="M121.888 0.689247V1.7147H116.773V4.61269H121.536V5.63813H116.773V8.78877H121.925V9.80678H115.555V0.689247H121.888Z" fill="#3F736F"/>
</svg>
