<svg width="23" height="26" viewBox="0 0 23 26" fill="none" xmlns="http://www.w3.org/2000/svg">
<path fill-rule="evenodd" clip-rule="evenodd" d="M0.25 19.0875V9.57129H22.75V19.1638C22.75 23.0875 20.2802 25.5 16.3285 25.5H6.65917C2.74451 25.5 0.25 23.0375 0.25 19.0875ZM6.44923 16.0125C5.88117 16.0388 5.41191 15.5875 5.38721 15.0138C5.38721 14.4388 5.83178 13.9638 6.39984 13.9375C6.95554 13.9375 7.41246 14.3763 7.42481 14.9375C7.44951 15.5138 7.00494 15.9888 6.44923 16.0125ZM11.5247 16.0125C10.9566 16.0388 10.4874 15.5875 10.4627 15.0138C10.4627 14.4388 10.9072 13.9638 11.4753 13.9375C12.031 13.9375 12.4879 14.3763 12.5003 14.9375C12.525 15.5138 12.0804 15.9888 11.5247 16.0125ZM16.5631 20.6125C15.9951 20.6 15.5381 20.125 15.5381 19.55C15.5258 18.975 15.9827 18.5013 16.5508 18.4888H16.5631C17.1435 18.4888 17.6128 18.9638 17.6128 19.55C17.6128 20.1375 17.1435 20.6125 16.5631 20.6125ZM10.4627 19.55C10.4874 20.125 10.9566 20.5763 11.5247 20.55C12.0804 20.5263 12.525 20.0513 12.5003 19.4763C12.4879 18.9138 12.031 18.475 11.4753 18.475C10.9072 18.5013 10.4627 18.975 10.4627 19.55ZM5.37486 19.55C5.39956 20.125 5.86883 20.5763 6.43688 20.55C6.99259 20.5263 7.43716 20.0513 7.41246 19.4763C7.40011 18.9138 6.94319 18.475 6.38749 18.475C5.81943 18.5013 5.37486 18.975 5.37486 19.55ZM15.5505 15.0013C15.5505 14.4263 15.9951 13.9638 16.5631 13.9513C17.1188 13.9513 17.5634 14.4 17.5881 14.9513C17.6004 15.5263 17.1559 16.0013 16.6002 16.0125C16.0321 16.025 15.5628 15.5875 15.5505 15.0138V15.0013Z" fill="#B7B7B7"/>
<path opacity="0.4" d="M0.25415 9.57118C0.270204 8.83743 0.33195 7.38118 0.448031 6.91243C1.04079 4.27618 3.05368 2.60118 5.93102 2.36243H17.0699C19.9225 2.61368 21.9601 4.29993 22.5529 6.91243C22.6677 7.36868 22.7295 8.83618 22.7455 9.57118H0.25415Z" fill="black"/>
<path d="M6.88105 6.2375C7.42441 6.2375 7.83193 5.82625 7.83193 5.275V1.46375C7.83193 0.9125 7.42441 0.5 6.88105 0.5C6.3377 0.5 5.93018 0.9125 5.93018 1.46375V5.275C5.93018 5.82625 6.3377 6.2375 6.88105 6.2375" fill="#B7B7B7"/>
<path d="M16.1187 6.2375C16.6497 6.2375 17.0696 5.82625 17.0696 5.275V1.46375C17.0696 0.9125 16.6497 0.5 16.1187 0.5C15.5754 0.5 15.1678 0.9125 15.1678 1.46375V5.275C15.1678 5.82625 15.5754 6.2375 16.1187 6.2375" fill="#B7B7B7"/>
</svg>
