<svg width="14" height="14" viewBox="0 0 14 14" fill="none" xmlns="http://www.w3.org/2000/svg">
<path d="M6.55777 14C10.1795 14 13.1155 10.866 13.1155 7C13.1155 3.13401 10.1795 0 6.55777 0C2.93601 0 0 3.13401 0 7C0 10.866 2.93601 14 6.55777 14Z" fill="#FFCC68"/>
<path d="M7.44229 14C11.064 14 14.0001 10.866 14.0001 7C14.0001 3.13401 11.064 0 7.44229 0C3.82053 0 0.884521 3.13401 0.884521 7C0.884521 10.866 3.82053 14 7.44229 14Z" fill="#D18312"/>
<path d="M6.97307 12.6069V11.2961C6.2679 11.2829 5.53851 11.0498 5.11304 10.7248L5.4051 9.85498C5.84294 10.1667 6.47497 10.4131 7.15593 10.4131C8.01924 10.4131 8.60286 9.88083 8.60286 9.14129C8.60286 8.4276 8.12896 7.98608 7.22908 7.59679C5.98871 7.07775 5.22275 6.48062 5.22275 5.3518C5.22275 4.27467 5.94029 3.45706 7.05858 3.26241V1.95215H7.81217V3.21073C8.54156 3.23657 9.04018 3.44441 9.39251 3.6649L9.0886 4.52154C8.83311 4.36594 8.335 4.08057 7.55668 4.08057C6.62074 4.08057 6.2679 4.6777 6.2679 5.19675C6.2679 5.8714 6.71758 6.209 7.7756 6.67636C9.02782 7.22125 9.65984 7.89646 9.65984 9.05112C9.65984 10.0766 8.99124 11.0366 7.73903 11.2571V12.6069H6.97307Z" fill="white"/>
</svg>
