<svg width="25" height="26" viewBox="0 0 25 26" fill="none" xmlns="http://www.w3.org/2000/svg">
<path fill-rule="evenodd" clip-rule="evenodd" d="M21.484 5.76705C21.0341 5.37086 20.5223 4.92267 19.9125 4.35933C19.6361 4.13648 19.3337 3.88143 19.0127 3.61152C17.2033 2.08743 14.7246 0 12.4653 0C10.232 0 7.9132 1.97105 6.05047 3.55457C5.70593 3.84676 5.3837 4.12162 5.05527 4.38781C4.47774 4.92267 3.96589 5.3721 3.51477 5.76952C0.556464 8.37076 0 9.05295 0 15.1209C0 26 3.14917 26 12.5 26C21.8496 26 25 26 25 15.1209C25 9.05171 24.4435 8.36952 21.484 5.76705Z" fill="#CDCDCD"/>
<path d="M7.54256 18.4476C7.54256 17.6271 8.2084 16.9619 9.02977 16.9619H15.9701C16.7914 16.9619 17.4573 17.6271 17.4573 18.4476C17.4573 19.2682 16.7914 19.9333 15.9701 19.9333H9.02977C8.2084 19.9333 7.54256 19.2682 7.54256 18.4476Z" fill="white"/>
</svg>
