<svg id="SvgjsSvg1171" width="256" height="256" xmlns="http://www.w3.org/2000/svg" version="1.1" xmlns:xlink="http://www.w3.org/1999/xlink" xmlns:svgjs="http://svgjs.com/svgjs"><defs id="SvgjsDefs1172"></defs><g id="SvgjsG1173"><svg xmlns="http://www.w3.org/2000/svg" fill-rule="evenodd" clip-rule="evenodd" image-rendering="optimizeQuality" shape-rendering="geometricPrecision" text-rendering="geometricPrecision" viewBox="0 0 7111 7111" width="256" height="256"><path fill="#4D4D4D" d="M6569 3653c-33,-1 -62,-15 -80,-41l-625 -875c-30,-43 -20,-104 23,-136 43,-30 104,-20 136,23l431 604c-164,-1577 -1502,-2811 -3122,-2811 -1730,0 -3138,1408 -3138,3139 0,1730 1408,3138 3138,3138 55,0 98,43 98,98 0,54 -43,97 -98,97 -893,0 -1730,-346 -2358,-975 -629,-628 -975,-1465 -975,-2358 0,-893 346,-1731 975,-2359 628,-629 1465,-975 2358,-975 894,0 1731,346 2359,975 535,534 865,1221 952,1964l283 -618c22,-49 80,-71 129,-49 48,23 71,81 48,130l-444 972c-16,36 -50,57 -90,57zm-2862 2416l-750 0c-47,0 -87,-33 -95,-79l-86 -454c-342,-101 -637,-272 -874,-507l-442 147c-43,14 -91,-2 -115,-43l-375 -639c-24,-40 -15,-90 19,-122l346 -309c-77,-370 -78,-646 2,-1014l-346 -310c-35,-31 -43,-82 -20,-122l375 -639c24,-40 71,-57 116,-43l441 147c238,-236 531,-406 874,-507l86 -454c8,-46 49,-79 96,-79l750 0c47,0 87,33 96,79l86 454c341,101 636,272 873,507l442 -147c43,-14 92,3 115,43l375 639c24,40 16,91 -20,122l-357 308c92,341 92,677 0,1017l355 307c36,30 45,82 21,122l-375 639c-24,40 -71,57 -115,43l-443 -147c-238,236 -531,405 -874,507l-86 454c-7,47 -47,80 -95,80zm-669 -194l589 0 82 -435c7,-36 35,-66 71,-76 354,-96 651,-268 884,-515 27,-28 66,-38 102,-25l425 141 294 -501 -341 -295c-30,-25 -41,-65 -30,-102 106,-349 106,-677 0,-1025 -11,-38 0,-77 30,-103l341 -295 -294 -501 -425 142c-36,12 -75,1 -102,-25 -233,-246 -530,-420 -884,-516 -36,-9 -64,-38 -71,-76l-82 -432 -589 0 -82 435c-7,36 -35,66 -71,76 -354,96 -651,268 -884,516 -27,27 -66,37 -102,25l-425 -142 -294 503 329 294c26,24 37,60 30,95 -44,195 -66,365 -66,519 0,154 22,325 66,519 9,35 -4,71 -30,95l-329 294 294 503 425 -142c36,-12 75,-1 102,25 233,246 530,420 884,516 36,9 64,39 71,76l82 432zm294 -861c-804,0 -1458,-654 -1458,-1458 0,-805 654,-1459 1458,-1459 805,0 1459,654 1459,1459 0,804 -654,1458 -1459,1458zm0 -2722c-697,0 -1263,566 -1263,1264 0,697 566,1263 1263,1263 698,0 1264,-566 1264,-1263 0,-698 -566,-1264 -1264,-1264z" class="color4d4d4d svgShape"></path><path fill="#99A4AC" d="M3332 2097c805,0 1459,654 1459,1459 0,804 -654,1458 -1459,1458 -804,0 -1458,-654 -1458,-1458 0,-805 654,-1459 1458,-1459zm1812 842l341 -295 -294 -501 -425 142c-36,12 -75,1 -102,-25 -233,-246 -530,-420 -884,-516 -36,-9 -64,-38 -71,-76l-82 -432 -589 0 -82 435c-7,36 -35,66 -71,76 -354,96 -651,268 -884,516 -27,27 -66,37 -102,25l-425 -142 -294 503 329 294c26,24 37,60 30,95 -44,195 -66,365 -66,519 0,154 22,325 66,519 9,35 -4,71 -30,95l-329 294 294 503 425 -142c36,-12 75,-1 102,25 233,246 530,420 884,516 36,9 64,39 71,76l82 432 589 0 82 -435c7,-36 35,-66 71,-76 354,-96 651,-268 884,-515 27,-28 66,-38 102,-25l425 141 294 -501 -341 -295c-30,-25 -41,-65 -30,-102 106,-349 106,-677 0,-1025 -11,-38 0,-77 30,-103z" class="color99a4ac svgShape"></path></svg></g></svg>