<svg width="14" height="12" viewBox="0 0 14 12" fill="none" xmlns="http://www.w3.org/2000/svg">
<path fill-rule="evenodd" clip-rule="evenodd" d="M8.56066 5.538C8.83436 5.538 9.05078 5.742 9.05078 6C9.05078 6.252 8.83436 6.462 8.56066 6.462H4.74159V9.33C4.74159 10.8 6.00825 12 7.57407 12H10.6739C12.2333 12 13.5 10.806 13.5 9.336V2.67C13.5 1.194 12.227 0 10.6675 0H7.56134C6.00825 0 4.74159 1.194 4.74159 2.664V5.538H8.56066ZM2.47063 3.92405L0.643872 5.67005C0.550032 5.76005 0.499984 5.87405 0.499984 6.00005C0.499984 6.12005 0.550032 6.24005 0.643872 6.32405L2.47063 8.07005C2.56447 8.16005 2.68959 8.20805 2.80845 8.20805C2.93357 8.20805 3.05869 8.16005 3.15253 8.07005C3.34021 7.89005 3.34021 7.59605 3.15253 7.41605L2.15157 6.46205H4.74156V5.53805H2.15157L3.15253 4.58405C3.34021 4.40405 3.34021 4.11005 3.15253 3.93005C2.96485 3.74405 2.65831 3.74405 2.47063 3.92405Z" fill="#93000F"/>
</svg>
