<svg width="19" height="13" viewBox="0 0 19 13" fill="none" xmlns="http://www.w3.org/2000/svg">
<path d="M4.8 12.144C3.50933 12.144 2.528 11.648 1.856 10.656C1.184 9.664 0.848 8.22933 0.848 6.352C0.848 5.09333 0.997333 4.03733 1.296 3.184C1.59467 2.32 2.03733 1.66933 2.624 1.232C3.22133 0.794666 3.94667 0.575999 4.8 0.575999C6.10133 0.575999 7.08267 1.06667 7.744 2.048C8.416 3.01867 8.752 4.448 8.752 6.336C8.752 7.59467 8.60267 8.656 8.304 9.52C8.00533 10.384 7.56267 11.04 6.976 11.488C6.38933 11.9253 5.664 12.144 4.8 12.144ZM4.8 11.008C5.696 11.008 6.35733 10.6293 6.784 9.872C7.22133 9.104 7.44 7.92533 7.44 6.336C7.44 4.736 7.22133 3.568 6.784 2.832C6.35733 2.08533 5.696 1.712 4.8 1.712C3.91467 1.712 3.25333 2.08533 2.816 2.832C2.37867 3.57867 2.16 4.74667 2.16 6.336C2.16 7.92533 2.37867 9.104 2.816 9.872C3.25333 10.6293 3.91467 11.008 4.8 11.008ZM14.6338 12.144C14.0258 12.144 13.4178 12.0533 12.8098 11.872C12.2124 11.6907 11.6684 11.408 11.1778 11.024C11.0498 10.9387 10.9644 10.8373 10.9218 10.72C10.8791 10.6027 10.8738 10.4853 10.9058 10.368C10.9378 10.2507 10.9964 10.1547 11.0818 10.08C11.1671 9.99467 11.2684 9.94667 11.3858 9.936C11.5138 9.92533 11.6471 9.968 11.7858 10.064C12.2231 10.3733 12.6764 10.6027 13.1458 10.752C13.6151 10.9013 14.1058 10.976 14.6178 10.976C15.1404 10.976 15.5884 10.88 15.9618 10.688C16.3458 10.4853 16.6338 10.208 16.8258 9.856C17.0284 9.49333 17.1298 9.072 17.1298 8.592C17.1298 7.856 16.9164 7.25333 16.4898 6.784C16.0631 6.31467 15.4764 6.08 14.7298 6.08C14.2711 6.08 13.8498 6.16533 13.4658 6.336C13.0818 6.50667 12.7298 6.77867 12.4098 7.152C12.3351 7.23733 12.2444 7.312 12.1378 7.376C12.0418 7.42933 11.9298 7.456 11.8018 7.456C11.6204 7.456 11.4764 7.408 11.3698 7.312C11.2738 7.20533 11.2258 7.06667 11.2258 6.896V1.328C11.2258 1.12533 11.2791 0.975999 11.3858 0.879999C11.4924 0.773333 11.6418 0.719999 11.8338 0.719999H17.2738C17.4764 0.719999 17.6258 0.767999 17.7218 0.863999C17.8284 0.959999 17.8818 1.09867 17.8818 1.28C17.8818 1.46133 17.8284 1.6 17.7218 1.696C17.6258 1.792 17.4764 1.84 17.2738 1.84H12.5218V6.336H12.1698C12.4471 5.888 12.8311 5.54667 13.3218 5.312C13.8124 5.06667 14.3618 4.944 14.9698 4.944C15.6844 4.944 16.2978 5.09333 16.8098 5.392C17.3324 5.69067 17.7324 6.112 18.0098 6.656C18.2978 7.18933 18.4418 7.81333 18.4418 8.528C18.4418 9.232 18.2871 9.856 17.9778 10.4C17.6684 10.944 17.2311 11.3707 16.6658 11.68C16.1004 11.9893 15.4231 12.144 14.6338 12.144Z" fill="#726868"/>
</svg>
