<svg width="21" height="24" viewBox="0 0 21 24" fill="none" xmlns="http://www.w3.org/2000/svg">
<path d="M19.8235 11.5747C18.9469 10.551 18.5485 9.66272 18.5485 8.1556V7.64436C18.5485 5.67919 18.0977 4.415 17.115 3.1496C15.6004 1.18442 13.0505 0 10.5543 0H10.447C8.00327 0 5.53333 1.13004 3.99244 3.01424C2.95605 4.30622 2.45275 5.62601 2.45275 7.64436V8.1556C2.45275 9.66272 2.08065 10.551 1.17664 11.5747C0.51353 12.3289 0.300049 13.297 0.300049 14.3472C0.300049 15.3963 0.645913 16.3922 1.33645 17.2007C2.23927 18.17 3.5142 18.7888 4.81656 18.8964C6.70211 19.1115 8.58766 19.1925 10.5007 19.1925C12.4124 19.1925 14.2992 19.0571 16.1847 18.8964C17.4859 18.7888 18.7608 18.17 19.6649 17.2007C20.3554 16.3922 20.7001 15.3963 20.7001 14.3472C20.7001 13.297 20.4878 12.3289 19.8235 11.5747Z" fill="#CDCDCD"/>
<path d="M8.05593 20.6734C7.5431 20.7919 6.98853 21.0686 6.98853 21.6729C7.01834 22.2482 7.35586 22.7583 7.82337 23.0809C8.42684 23.5535 9.13646 23.852 9.87947 23.9596C10.2754 24.014 10.6785 24.0128 11.0888 23.9596C11.8306 23.852 12.5402 23.5535 13.1449 23.0822C13.6112 22.7583 13.9487 22.2482 13.9786 21.6729C13.9786 21.0686 13.424 20.7919 12.9111 20.6734C12.3113 20.5465 8.65583 20.5465 8.05593 20.6734Z" fill="#DCDCDC"/>
</svg>
